<?xml version="1.0" encoding="UTF-8"?>
<svg id="Camada_1" xmlns="http://www.w3.org/2000/svg" version="1.1" viewBox="0 0 400 400">
  <!-- Generator: Adobe Illustrator 29.0.1, SVG Export Plug-In . SVG Version: 2.1.0 Build 192)  -->
  <defs>
    <style>
      .st0 {
        fill: #7b3026;
      }

      .st1 {
        fill: #1b1b1b;
      }

      .st2 {
        fill: none;
        stroke: #7b3026;
        stroke-miterlimit: 10;
        stroke-width: 9px;
      }

      .st3 {
        fill: #f7e1b0;
      }
    </style>
  </defs>
  <path class="st1" d="M176.48,389.5c-76.66.26-99.62-73.9-99.62-93.89,0-16.46-3.09-30.41,11.9-64.33-3.87-38.98-7.57-62.49,14.67-94.24-2.47-27.04,2.18-103.39,47.86-115.09,45.68,11.55,41.22,58.4,41.22,58.4l8.02-1.15s8.06-59.82,37.79-68.7c27.07,4.4,77.08,31.77,72.14,130.53,18.53,59.96,43.51,196.94-133.97,248.47Z"/>
  <path class="st3" d="M177.53,383.52c-71.04.26-93.94-70.73-93.94-90.2,0-16.03,0-28.63,13.89-61.66-3.58-37.96-7.02-60.86,13.59-91.78-2.29-26.34,3.51-95.22,41.22-108.78,29.08,4.38,36.64,53.82,36.64,53.82l17.18-1.15s11.45-57,33.21-65.27c23.09,3.69,70.99,27.48,66.41,123.66,17.18,58.4,41.22,188.93-128.19,241.34Z"/>
  <path class="st1" d="M94.21,278.43h9.94c1.72,0,2.96,1.64,2.5,3.3l-1.77,6.26c-.32,1.12-1.34,1.89-2.5,1.89h-6.08c-1.12,0-2.11-.71-2.46-1.77l-2.1-6.26c-.56-1.68.69-3.42,2.46-3.42Z"/>
  <path class="st1" d="M97.8,288.74c30.59,70.99,66.08,26.34,75.24,20.61-4.58,11.45-52.67,54.96-75.24-20.61Z"/>
  <path class="st1" d="M97.8,288.74c.82,41.22-14.07,35.5-14.07,35.5,0,0,8.02,5.73,14.07-35.5Z"/>
  <path class="st0" d="M155.87,250.95c18.32-45.8,28.63-46.95,34.35-51.53,5.73-4.58,40.08-9.16,65.27-27.48-52.67,53.82-69.85,38.93-99.62,79.01Z"/>
  <path class="st1" d="M159.31,245.03c14.89-20.41,36.64-23.85,68.7-49.04-6.87-4.58-57.25,13.34-68.7,49.04Z"/>
  <path class="st0" d="M187.4,247.32c38.31,5.92,54.34-36.44,54.34-36.44,0,0-4.58,16.03-54.34,36.44Z"/>
  <path class="st0" d="M279.53,239.5c-131.68,74.43-41.22,113.36-20.61,68.7.19,5.07-.75,9.46-2.55,13.21-19.28,40.23-136.07,5.04,23.16-81.91Z"/>
  <path class="st0" d="M250.91,328.81c40.14-22.58,21.41-53.82,11.85-54.96-13.82-3.57-22.13,5.67-24.49,15.14-1.65,6.61,1.78,13.56,8.12,16.05,22.93,9-32.12,44.38,4.52,23.77Z"/>
  <path class="st1" d="M110.18,251.15c-4.69-9.36-9.27-17.37-21.87-33.4,5.73-8.02,26.56,22.15,21.87,33.4Z"/>
  <ellipse class="st2" cx="139.5" cy="159.35" rx="25" ry="29.2"/>
  <path class="st0" d="M145.07,130.15c2.09-12.97,30.78-42.65,33.7-44.08,2.92-.77,3.35-.56,5.13,0-21.46,16.5-34.26,46.32-34.26,46.32,0,0-2.48-2.58-4.57-2.23Z"/>
  <polygon class="st0" points="126.55 188.55 124.16 200.71 129.54 200.71 131.93 188.55 126.55 188.55"/>
  <path class="st1" d="M90.46,167.22c4.58-32.06,43.51-51.53,43.51-51.53,0,0-4.58-2.29-43.51,51.53Z"/>
  <path class="st1" d="M123.81,115.84c4.58-35.5,17.18-54.96,26.34-54.96,11.45,6.87,13.79,17.5,14.34,25.93-20.06,13-2.89,1.55-40.67,29.03Z"/>
  <path class="st1" d="M280,110.86c-5.91-35.5-22.18-54.96-34-54.96-14.78,6.87-17.8,17.5-18.51,25.93,25.9,13,3.73,1.55,52.51,29.03Z"/>
</svg>