<svg xmlns="http://www.w3.org/2000/svg" xmlns:xlink="http://www.w3.org/1999/xlink" version="1.1" id="Layer_1" x="0px" y="0px" viewBox="0 0 512 512" style="enable-background:new 0 0 512 512;" xml:space="preserve">
<g>
	<path d="M460.8,102.4C460.8,46.9,367.02,0,256,0C144.95,0,51.2,46.9,51.2,102.4v51.2C51.2,209.1,144.95,256,256,256   c111.02,0,204.8-46.9,204.8-102.4V102.4z M256,435.2c-111.05,0-204.8-46.9-204.8-102.4v76.8C51.2,465.1,144.95,512,256,512   c111.02,0,204.8-46.9,204.8-102.4v-76.8C460.8,388.3,367.02,435.2,256,435.2z" fill="#ffffff"/>
	<path d="M460.8,204.8c0,55.5-93.77,102.4-204.8,102.4c-111.05,0-204.8-46.9-204.8-102.4v76.8C51.2,337.1,144.95,384,256,384   c111.02,0,204.8-46.9,204.8-102.4V204.8z" fill="#ffffff"/>
</g>
</svg>