<?xml version="1.0" encoding="utf-8"?>
<!-- Generator: Adobe Illustrator 27.0.1, SVG Export Plug-In . SVG Version: 6.00 Build 0)  -->
<svg version="1.1" id="Camada_1" xmlns="http://www.w3.org/2000/svg" xmlns:xlink="http://www.w3.org/1999/xlink" x="0px" y="0px"
	 viewBox="0 0 2600 2604" style="enable-background:new 0 0 2600 2604;" xml:space="preserve">
<style type="text/css">
	.st0{fill:#7B3026;}
</style>
<path class="st0" d="M1070,68.2c-35.3,3.3-69.1,21.9-118.6,65.5c-31.1,27.2-53.3,43.9-69.5,52l-13.3,6.6l-22.2,0.5
	c-36.3,0.9-77.7-7.2-127-24.7c-45.6-16.3-44.7-15.9-60.3-15.3c-16.6,0.6-26.9,4.8-39.5,16.3c-39.1,35.2-60.2,122.8-57.5,239.7
	c2.3,100.3,19.2,198.1,51.1,293.8c18.8,56.6,34.5,91.3,57.3,126.4c4.7,7.2,8.3,13.3,8,13.4c-0.3,0.3-7.2-0.5-15.3-1.9
	c-23.9-3.9-79.4-3.4-107.8,0.9c-82,12.5-145.6,36.9-263.3,100.8c-46.7,25.5-51.9,27.7-92.7,40c-56.1,17-76.9,27-99.4,48.3
	c-22.3,21.3-36.3,49.5-43.9,89.2c-3.9,20-4.8,71.6-1.7,90.9c4.2,25.6,13.4,46.7,27.7,63c3,3.3,13.6,12.5,23.6,20.5
	c34.5,27.5,34.8,34.5,4.7,87.8c-33.9,59.5-43,85.6-43,122.2c0.2,23.8,3.4,38,13.8,58.8c36.7,74.8,162,153.1,305.5,191.1
	c67.2,17.8,153.3,27.3,214.9,24.1c14.7-0.9,26.7-1.4,27-1.3c0.2,0.2-2.5,8.8-5.9,19.2c-27,82.5-38.9,183.1-39.5,334.6
	c-0.3,62.5,0.5,73.6,6.9,105.2c13.8,68.1,51.6,121.4,103.3,145.8c20.5,9.7,37,13.6,60.8,14.4c25.8,1.1,38.9-1.3,66.1-11.4
	c22.7-8.4,29.7-10.2,43.4-10.2c16.3-0.2,25.3,3.6,36.6,14.8c11.9,11.9,20.8,29.7,35.8,71.3c13.6,37.5,18.4,48,25.5,55.2
	c39.1,40.6,172.8,20.5,308.9-46.6c65.5-32.3,120.3-69.8,165.2-113.1c62.7-60.3,100.2-130.5,116.3-217.2c7-38.4,8.8-58,9.8-113.4
	l0.9-53l6.1,8.4c9.7,13.8,31.1,39.2,49.2,59.1c47.8,52,108.9,95.8,171.3,123c93.4,40.8,201.4,54.1,326.6,40.5
	c115.6-12.5,185.8-62.8,218-156.3c13.4-38.9,18-74.2,16.7-128.6c-0.8-37.7-3.8-62.8-10.6-95.2c-1.7-8.1-3-14.8-2.7-15
	s11.7-3,25.5-6.3c52.8-12.5,108.3-33.9,135.3-52c24.5-16.6,35.5-31.9,44.5-62.2c6.1-20.5,7-55.9,2.3-83.4
	c-8-46.4-32.8-103.1-69.4-158c-25.5-38.1-64.2-86.3-90.8-112.8c-52-52-130.5-90.8-236.1-116.9c-29.8-7.5-81.3-17.3-101.9-19.7
	c-5.5-0.5-9.8-1.4-9.8-2s3.8-3,8.3-5.5c13.4-7.5,41.9-26.6,61.7-41.4c66.3-49.4,119.1-107.8,146.9-162.4
	c14.1-27.7,39.5-98,54.8-152.2c23.1-81.6,32.3-142.2,30.9-203.6c-1.1-48.6-6.6-75.6-21.7-107c-6.9-14.2-9.5-18-21.4-29.7
	c-20.3-19.8-44.2-32.8-78.6-42.8c-33.9-9.8-61.1-13.4-109.4-14.5c-21.4-0.5-38.8-0.9-38.8-1.1c0,0,1.6-4.1,3.4-8.8
	c4.8-12.2,4.8-32.5-0.2-48.4c-7.2-23.3-22.8-48.8-45-73.8c-25-28-45.9-40-84.8-48.3c-19.2-4.1-65.2-5.6-91.1-3.1
	c-127,12.5-281.3,76.1-394.9,163.1c-15.9,12.2-19.7,14.4-20.5,12.3c-0.6-1.4-5-14.7-9.7-29.2c-26.3-80.5-66.1-145.5-125.3-204.9
	c-47.8-48-99.7-83.8-160.5-110.6C1109.9,69.5,1093.8,66.1,1070,68.2L1070,68.2z M1378.3,867.4c8.6,4.1,16.1,12.2,20,21.6
	c3.3,7.8,3,25.2-0.6,33.1c-5.8,12.5-21.1,23.9-32.3,24.1c-2.7,0-5.6,0.9-6.6,1.9c-2.5,3.1-18.8,46.6-28.6,76.3
	c-26.7,80.6-45,175.8-45.2,233.5v12.5l7.7-11.4c45.2-67.8,138.6-147.8,252.5-216.3l21.9-13.1l0.2-10.8c0.2-12.5,2.8-19.8,10.5-28.3
	c16.9-18.6,46.1-18,62.7,1.4c6.1,7,10.3,18.4,10.3,27.8c0,14.4-10,29.8-23.6,36.7c-13.8,7-35.5,4.4-46.1-5.6c-3.1-3-3.3-3-28.4,12.5
	c-111.7,68.9-196.1,140.6-239.5,203.6c-5.2,7.7-8.8,13.8-8.1,13.8c2.5,0,31.3-8,45.8-12.7c42.8-13.9,102.7-41.4,143.8-65.9
	l19.5-11.7v-14.5c0-12,0.6-15.8,3.4-20.9c7.8-14.4,21.4-22.5,38.1-22.7c28.3,0,47.8,26.4,39.8,53.9c-3.8,12.7-15.6,24.5-28.1,28.1
	c-10.6,3.1-18.6,2.2-30.6-3.3l-8.6-3.9l-21.1,12.7c-57,34.4-131.9,65.9-188.9,79.7l-14.7,3.6l6.9,3.4c12,6.3,50,20.6,69.4,26.6
	c36.9,11.3,79.4,19.7,122.7,24.5c23.1,2.5,105.8,2.5,129.7,0c28.4-3.1,27-2.7,30.2-11.1c6.6-18.4,20-28.3,38.4-28.3
	c24.2,0.2,42.3,18,42.2,41.4c0,16.9-6.7,28.8-20.6,36.7c-16.9,9.5-35.9,7.3-49.2-5.9c-4.2-4.1-8.6-8.9-9.8-10.9l-2.2-3.4l-21.9,2.3
	c-48,5.3-112.5,4.7-161.6-1.6c-50.6-6.6-106.1-20.8-145.3-37.3c-7.3-3.1-13.4-5.3-13.8-5c-0.9,0.8,28.6,28.3,45.8,42.7
	c51.1,42.5,109.1,82.7,169.1,116.9l23.9,13.6l5.8-3.9c10.5-7.3,17.3-9.4,28.4-8.6c23.1,1.7,39.1,18.8,39.1,42
	c0,38.4-46.7,56.4-72.5,28c-8-8.9-10.3-15.2-10.3-27.8v-10.6l-20.6-11.4c-81.6-45.3-180.2-118.6-232-172.5l-11.4-11.7v26.9
	c0,39.5,4.4,112.8,8.8,146.4c0.9,6.9,1.3,7.2,7.8,8.9c18.9,5.2,30.3,20.3,30.3,40.8s-18.9,40.6-40.6,40.8c-17.3,0-29.7-7-37.8-21.4
	c-10.9-19.4-5.2-44.1,13.1-55.6l6.9-4.2l-1.9-16.9c-4.5-40.5-8.3-115-8.4-164.1V1309h-15.5c-57,0-142.8-9.8-191.3-21.9l-18.3-4.7
	l-5.9,6.6c-8,8.9-15.8,12.2-29.4,12.2s-29.8-7.5-38.4-24.1c-5.2-9.7-4.7-25.6,0.8-36.3c12.7-24.7,44.7-30.8,66.3-12.5
	c6.7,5.6,13,18.6,13,27s-1.7,6.6,25,12.8c43.4,10.3,133.3,20.2,168.9,18.6l11.9-0.5l-10-17.2c-40.3-68.9-75.3-163.9-88.9-241.7
	l-2.7-15.3l-5.6-0.8c-21.1-3.4-37.7-22-37.7-42.2s19.1-41.4,41.3-41.4s20.5,2.7,29.1,10.5c19.1,17.2,18.6,46.6-1.1,62.8l-5.8,4.7
	l4.2,21.6c13.9,70,38.4,141.1,69.7,201.3c6.7,12.8,14.2,26.9,16.9,31.1l4.7,7.5l1.1-18.4c3.4-58.6,13.6-118.4,30.8-181.3
	c7.8-29.2,25.3-81.3,35.6-106.9c7.3-18.1,7.7-19.7,5.2-21.6c-12.8-9.4-18.3-19.8-18.1-34.7c0.2-31.6,31.9-50.6,61.1-36.6
	L1378.3,867.4z"/>
</svg>
