<?xml version="1.0" encoding="UTF-8"?>
<svg id="Camada_1" xmlns="http://www.w3.org/2000/svg" version="1.1" viewBox="0 0 400 400">
  <!-- Generator: Adobe Illustrator 29.0.1, SVG Export Plug-In . SVG Version: 2.1.0 Build 192)  -->
  <defs>
    <style>
      .st0 {
        fill: #7b3026;
      }

      .st1 {
        fill: #1b1b1b;
      }

      .st2 {
        fill: #f7e1b0;
      }
    </style>
  </defs>
  <g>
    <path class="st1" d="M175.07,296.96c38.8-26.86,10.61-88.39,10.61-88.39,0,0,10.56-23.78-2.12-55.86-17.16,9.7-19.09,16.26-19.09,16.26,0,0-23.65-25.94-17.68-57.28,43.13-60.1,46.32-25.83,53.03-99.7-40.29,0-53.03,26.16-53.03,26.16,0,0-1.06-15.05-7.78-24.75-50.91,31.11-27.58,81.32-27.58,81.32l-15.56,29.7s-13.79-5.7-20.51-4.95c-2.98,22.39,9.78,29.58,12.02,31.82-6.72,17.16,5.66,56.57,5.66,56.57,0,0-13.68-9.51-36.06-3.54,8.49,48.08,56.57,46.67,56.57,46.67,0,0,32.42,58.65,61.52,45.96Z"/>
    <path class="st0" d="M173.66,294.14c36.77-25.46,9.19-85.56,9.19-85.56,0,0,11.31-21.21-.71-51.62-16.26,9.19-17.83,17.83-17.83,17.83,0,0-27.42-31.97-21.77-61.67,41.72-62.93,48.79-28.99,55.15-98.99-38.18,0-53.03,31.82-53.03,31.82,0,0-1.41-19.8-7.78-28.99-42.43,32.53-23.15,77.26-23.15,77.26l-17.16,33.76s-12.73-7.07-19.09-6.36c-2.83,21.21,10.61,27.58,12.73,29.7-6.36,16.26,7.56,61.73,7.56,61.73,0,0-16.76-12.94-37.97-7.29,11.31,45.25,55.15,42.43,55.15,42.43,0,0,31.11,57.98,58.69,45.96Z"/>
    <ellipse class="st1" cx="140.43" cy="253.12" rx="3.5" ry="5.5" transform="translate(-137.86 173.43) rotate(-45)"/>
    <path class="st2" d="M192.73,255.82c-11.29,3.67-6.34,1.54-19.07,4.37-43.84-7.07-11.31-56.57,1.41-36.77,9.9,0,9.82-9.82,9.82-9.82,0,0,12.05,32.9,7.83,42.22Z"/>
    <path class="st2" d="M97.78,213.03c5.87,8.27,12.94-.22,19.31,11.81,7.78,20.51,14.14,5.66,19.09,2.12,9.9-43.84-24.04-35.36-30.41-38.89s10.99-11.85,1.25-18.66c-11.15.27-11.86-6.09-18.12-12.62-3.64,3.7,3,47.97,8.87,56.24Z"/>
    <path class="st2" d="M171.83,181.78c-24.54-8.6-15.16,7.89-30.25,3.74-15.09-4.15-5.23-27.55-7.43-37.59,1.29-10.94-14.23-8.75-18.89-16.97,1.35-14.91,15.96-20.62,28.57-22.73-5.04,38.49,11.92,51.04,27.99,73.54Z"/>
    <path class="st2" d="M112.67,96.32s17.08,1.87,8.27,8.27c-10.22,6.4-12.34,9.94-13.75,24.08-6.36.71-4.24-1.41-10.61-.71,4.24-8.49,16.08-31.65,16.08-31.65Z"/>
  </g>
  <g>
    <path class="st1" d="M222.74,103.04c-38.8,26.86-10.61,88.39-10.61,88.39,0,0-10.56,23.78,2.12,55.86,17.16-9.7,19.09-16.26,19.09-16.26,0,0,23.65,25.94,17.68,57.28-43.13,60.1-46.32,25.83-53.03,99.7,40.29,0,53.03-26.16,53.03-26.16,0,0,1.06,15.05,7.78,24.75,50.91-31.11,27.58-81.32,27.58-81.32l15.56-29.7s13.79,5.7,20.51,4.95c2.98-22.39-9.78-29.58-12.02-31.82,6.72-17.16-5.66-56.57-5.66-56.57,0,0,13.68,9.51,36.06,3.54-8.49-48.08-56.57-46.67-56.57-46.67,0,0-32.42-58.65-61.52-45.96Z"/>
    <path class="st2" d="M224.15,105.86c-36.77,25.46-9.19,85.56-9.19,85.56,0,0-11.31,21.21.71,51.62,16.26-9.19,17.83-17.83,17.83-17.83,0,0,27.42,31.97,21.77,61.67-41.72,62.93-48.79,28.99-55.15,98.99,38.18,0,53.03-31.82,53.03-31.82,0,0,1.41,19.8,7.78,28.99,42.43-32.53,23.15-77.26,23.15-77.26l17.16-33.76s12.73,7.07,19.09,6.36c2.83-21.21-10.61-27.58-12.73-29.7,6.36-16.26-7.56-61.73-7.56-61.73,0,0,16.76,12.94,37.97,7.29-11.31-45.25-55.15-42.43-55.15-42.43,0,0-31.11-57.98-58.69-45.96Z"/>
    <ellipse class="st1" cx="257.38" cy="146.88" rx="3.5" ry="5.5" transform="translate(-28.47 225.02) rotate(-45)"/>
    <path class="st0" d="M205.08,144.18c11.29-3.67,6.34-1.54,19.07-4.37,43.84,7.07,11.31,56.57-1.41,36.77-9.9,0-9.82,9.82-9.82,9.82,0,0-12.05-32.9-7.83-42.22Z"/>
    <path class="st0" d="M300.03,186.97c-5.87-8.27-12.94.22-19.31-11.81-7.78-20.51-14.14-5.66-19.09-2.12-9.9,43.84,24.04,35.36,30.41,38.89,6.36,3.54-10.99,11.85-1.25,18.66,11.15-.27,11.86,6.09,18.12,12.62,3.64-3.7-3-47.97-8.87-56.24Z"/>
    <path class="st0" d="M225.98,218.22c24.54,8.6,15.16-7.89,30.25-3.74,15.09,4.15,5.23,27.55,7.43,37.59-1.29,10.94,14.23,8.75,18.89,16.97-1.35,14.91-15.96,20.62-28.57,22.73,5.04-38.49-11.92-51.04-27.99-73.54Z"/>
    <path class="st0" d="M285.14,303.68s-17.08-1.87-8.27-8.27c10.22-6.4,12.34-9.94,13.75-24.08,6.36-.71,4.24,1.41,10.61.71-4.24,8.49-16.08,31.65-16.08,31.65Z"/>
  </g>
</svg>