<?xml version="1.0" encoding="utf-8"?>
<!-- Generator: Adobe Illustrator 27.0.1, SVG Export Plug-In . SVG Version: 6.00 Build 0)  -->
<svg version="1.1" id="Layer_1" xmlns="http://www.w3.org/2000/svg" xmlns:xlink="http://www.w3.org/1999/xlink" x="0px" y="0px"
	 viewBox="0 0 800 800" style="enable-background:new 0 0 800 800;" xml:space="preserve">
<style type="text/css">
	.st0{fill:#c75412;}
</style>
<path class="st0" d="M203.6,767.4c-31.9,0-64.2-9.4-92.3-28.9l-5.9-4.1c-73.5-51-91.8-152.4-40.7-225.8l154.8-206.5
	c24.3-35,61.4-58.8,104-66.5c42.7-7.7,85.7,1.7,121.3,26.4l5.9,4.1c30.2,21,52.6,52,63.1,87.2c3.5,11.8-3.2,24.1-15,27.6
	s-24.1-3.2-27.6-15c-7.7-26-23.5-47.9-45.8-63.3l-5.9-4.1c-25.9-18-57.2-24.8-88.1-19.2c-31,5.6-57.9,22.9-75.9,48.8L100.7,534.6
	c-36.6,52.7-23.3,126.3,30,163.3l5.9,4.1c53.3,37,126.9,23.8,164-29.6l47.3-68.1c7-10.1,20.8-12.5,30.9-5.6
	c10.1,7,12.6,20.9,5.6,30.9l-47.3,68.1C305.6,743,255,767.3,203.6,767.4L203.6,767.4z"/>
<path class="st0" d="M447.7,567.1c-32,0-64.3-9.4-92.5-29l-6-4.2c-30.2-21-52.6-51.9-63-87.2c-3.5-11.8,3.2-24.1,15-27.6
	s24.1,3.2,27.6,15c7.7,25.9,23.5,47.8,45.7,63.3l6,4.2c53.3,37,126.9,23.8,164-29.6l154.8-206.6c36.6-52.7,23.3-126.3-30-163.3
	l-5.9-4.1c-25.9-18-57.2-24.8-88.2-19.2c-31,5.6-57.9,22.9-75.9,48.8L452,195.7c-7,10.1-20.8,12.6-30.9,5.6s-12.6-20.8-5.6-30.9
	l47.3-68.1c24.7-35.6,61.8-59.5,104.5-67.1c42.6-7.7,85.8,1.7,121.4,26.4l5.9,4.1c73.6,51.1,91.8,152.4,40.8,225.9L580.6,498.2
	C549.4,543.1,499,567.2,447.7,567.1L447.7,567.1z"/>
<path class="st0" d="M586.2,367.8c-2.3,0-4.7-0.7-6.7-2.2c-4.9-3.7-5.9-10.6-2.2-15.5l6.1-8.1c3.7-4.9,10.7-5.9,15.5-2.2
	c4.9,3.7,5.9,10.6,2.2,15.5l-6.1,8.1c-2.2,2.9-5.5,4.4-8.9,4.4L586.2,367.8z"/>
<path class="st0" d="M611.6,334c-2.3,0-4.7-0.7-6.7-2.2c-4.9-3.7-5.9-10.6-2.2-15.5l49.2-65.6c11.8-17,16.3-37.9,12.6-58.7
	c-3.7-20.7-15.3-38.8-32.6-50.8l-3.8-2.6c-5-3.5-6.3-10.4-2.8-15.5c3.5-5,10.4-6.3,15.5-2.8l3.8,2.6c22.2,15.4,37,38.5,41.8,65.1
	s-1,53.4-16.4,75.6l-49.4,65.9c-2.2,2.9-5.5,4.4-8.9,4.4L611.6,334z"/>
</svg>
