<?xml version="1.0" encoding="UTF-8"?>
<svg id="Camada_1" xmlns="http://www.w3.org/2000/svg" version="1.1" viewBox="0 0 400 400">
  <!-- Generator: Adobe Illustrator 29.0.1, SVG Export Plug-In . SVG Version: 2.1.0 Build 192)  -->
  <defs>
    <style>
      .st0 {
        fill: #fff;
      }

      .st1 {
        fill: #7b3026;
      }

      .st2 {
        fill: #1b1b1b;
      }

      .st3 {
        fill: #f7e1b0;
      }
    </style>
  </defs>
  <path class="st2" d="M208,367c-62.03-34.66,15-77,29-30,5.86-4.57,5.58-5.85,11-8,17.05-4.89,14.78,19.95,11,24-3.78,33.41-22.42,22.47-23,23-15.26,24.99-34.29,7.14-35,3s1-10,7-12Z"/>
  <path class="st3" d="M213,363.96c-59.29-34.51,14.06-64.86,22.14-21.01,5.29-5.1,2.63-.91,13.05-9.3,14.62-4.2,9.9,15.43,6.66,18.9-3.24,28.65-20.43,19.36-20.93,19.81-13.08,21.43-28.65,8.96-29.26,5.4s4.99-10.55,8.33-13.81Z"/>
  <path class="st2" d="M272.08,262.32c16.94-.27,42.92,31.21,42.92,36.68-16.4,5.47-23,8-23,8l-24.95-23s-11.91-21.41,5.04-21.68Z"/>
  <path class="st1" d="M276.38,268.12c13-.2,31.18,24.97,31.18,29.17-12.59,4.2-15.51,4.1-15.51,4.1l-19.54-16.64s-9.14-16.43,3.87-16.64Z"/>
  <path class="st2" d="M110.35,224.55c-77.35,65.45,78.71,106.6,79.44,106.3s3.87-4.56,17.07-11.19c9.14-18.66-55.95-32.17-96.51-95.11Z"/>
  <path class="st1" d="M110.12,230.3c-61.32,54.39,78.55,96.93,79.25,96.64s-.7-.29,11.89-6.6c8.39-20.26-72.73-28.65-91.14-90.04Z"/>
  <path class="st2" d="M308,196c67-80-29.76-126.87-64.88-82.93-27.49,42.26,1.57,134.47,64.88,82.93ZM259,133c13.99-8.39,61.02-9,29,34-36.08,48.46-42.48-25.91-29-34Z"/>
  <path class="st2" d="M165.22,84.84c-34.22-38.84-116.22,5.16-49.85,66.12,56.12,12.96,71.78-32.4,49.85-66.12ZM125.33,129.44c-25.18-39.16,14.45-36.36,26.58-29.37,10.86,6.27-.52,69.91-26.58,29.37Z"/>
  <path class="st1" d="M159.3,86.81c-25.18-31.5-100.71,2.07-44.51,59.04,50.11,11.57,64.09-28.93,44.51-59.04ZM118.01,125.31c-23.1-36.3,20.3-37.83,30-32.23,9.7,5.59-6.9,68.54-30,32.23Z"/>
  <path class="st1" d="M301.97,193.78c64.27-69.61-25.15-118.43-57.99-77.34-25.54,39.27-.82,125.22,57.99,77.34ZM258.69,124.61c4.23-2.44,69.51-11.02,36.28,41.19-30.14,47.35-48.94-33.9-36.28-41.19Z"/>
  <path class="st2" d="M113,127c11.71-16.11,43-47,43-47,0,0,58.53,2.16,88,0,24.7,19.73,40,48,40,48,0,0,10.25,104.51,0,166-43.92,10.25-127.16,20.43-170-3-13.56-39.53-2.46-136.18-1-164Z"/>
  <path class="st0" d="M118.74,129.44c11.19-15.39,39.16-44.03,39.16-44.03,0,0,54.55,2.07,82.71,0,23.6,18.85,36.97,44.03,36.97,44.03,0,0,10.4,100.71.61,159.45-41.96,9.79-115.36,22.38-156.29,0-12.95-37.76-4.56-132.88-3.16-159.45Z"/>
  <path class="st2" d="M119,16c-51,71,59.88,96.66,59.88,96.66l22.38-29.37S185.86-13.55,119,16ZM137,39c24-3,43,47,43,47l-4,3s-53-24-39-50Z"/>
  <path class="st1" d="M122.93,18.94c-44.76,62.94,55.95,90.92,55.95,90.92l20.98-19.58S184.66-3.45,122.93,18.94ZM132.72,34.33c37.76-8.39,51.75,57.35,51.75,57.35l-5.59,4.2s-69.93-30.77-46.16-61.54Z"/>
  <path class="st2" d="M199.04,82.65l20.4,30.01s108.56-21.66,62.56-97.66c-74-23-82.96,67.65-82.96,67.65ZM224,90l-3-4s16-51,44-48c10,30-41,52-41,52Z"/>
  <path class="st1" d="M198.46,91.68l22.96,17.54s100.71-27.97,55.95-90.92c-61.73-22.39-78.91,73.37-78.91,73.37ZM221.42,95.23l-5.59-4.2s13.99-65.74,51.75-57.35c23.78,30.77-46.16,61.54-46.16,61.54Z"/>
  <path class="st2" d="M178,89c9.55-1.59,18.22-1.59,23,0,1.59,6.37,1.59,22.3,0,25-9.55,1.11-22.41,1.08-24-1s-.59-20.82,1-24Z"/>
  <path class="st1" d="M179.28,91.68c8.39-1.4,13.99-1.4,18.18,0,1.4,5.59,1.4,17.64,0,20.01-8.39.97-16.78,1.82-18.18,0s-1.4-17.21,0-20.01Z"/>
  <path class="st2" d="M200,89c9.55-1.59,17.22-.59,22,1,1.59,6.37,1.59,20.3,0,23-9.55,1.11-20.41,2.08-22,0s-1.59-20.82,0-24Z"/>
  <path class="st1" d="M202.26,91.52c8.39-1.4,13.99-1.4,18.18,0,1.4,5.59,1.4,17.64,0,20.01-8.39.97-16.78,1.82-18.18,0s-1.4-17.21,0-20.01Z"/>
  <path class="st2" d="M176.87,112.28c9.55-1.59,18.35-1.87,23.13-.28,1.59,6.37.59,20.3-1,23-9.55,1.11-20.54,2.13-22.13.05s-1.59-19.59,0-22.78Z"/>
  <path class="st1" d="M179.28,113.9c8.39-1.4,13.99-1.4,18.18,0,1.4,5.59,1.4,17.64,0,20.01-8.39.97-16.78,1.82-18.18,0s-1.4-17.21,0-20.01Z"/>
  <path class="st2" d="M199.85,112.28c9.55-1.59,17.37-1.87,22.15-.28,1.59,6.37,1.59,20.3,0,23-9.55,1.11-20.56,2.13-22.15.05s-1.59-19.59,0-22.78Z"/>
  <path class="st1" d="M202.26,113.9c8.39-1.4,13.99-1.4,18.18,0,1.4,5.59,1.4,17.64,0,20.01-8.39.97-16.78,1.82-18.18,0s-1.4-17.21,0-20.01Z"/>
  <path class="st2" d="M301,342c-46.55-53.69,42.75-58.57,36-16,6-1-1.76,1.07,13-4,17.69,1.2,7.93,23.47,3,26-14.92,30.14-29.28,13.7-30,14-22.85,18.31-33.74-4.86-33-9s6.04-8.75,11-11Z"/>
  <path class="st3" d="M305.98,343.28c-44.02-52.61,35.28-56.22,27.97-12.23,6.71-3,2.78.04,15.43-4.31,15.17,1.03,4.07,17.88-.16,20.04-12.79,25.84-25.8,11.26-26.42,11.51-19.59,15.7-29.99-1.32-29.35-4.87s8.28-8.22,12.53-10.15Z"/>
  <path class="st2" d="M191.64,344.06c6.83-11.81,31.26-18.11,35.83-16.36,4.57,1.75,9.07,11.05,8.76,14.34s-2.8,0,5.59-5.59c4.2,32.17-34.97,32.17-34.97,32.17l5.59-4.2s-22.04-9.95-20.81-20.36Z"/>
  <path class="st2" d="M292.26,316.42c10.46-8.75,35.57-6.3,39.26-3.08,3.69,3.21,4.73,13.49,3.32,16.48s-2.63-.96,7.17-3.34c-7.09,31.66-43.88,18.23-43.88,18.23l6.69-2.02s-17.29-16.91-12.57-26.26Z"/>
  <g>
    <path class="st2" d="M196,192c-14.22-7.11-3.24-19.75-2-25-2.92-18.32,21.27-34.87,17-5-7.11-18.49,23-27,13-1,2.84-4.27,12-13,22-9,0-14,26.07,1.31,9,7,4.27,7.11,14.6,23.31-11,29-3.01,7.08-21.47,28.65-30,13-5.05,5.05-25.11,12.34-18-9Z"/>
    <path class="st3" d="M199.78,190.58c-14.04-4.33-4.08-18.56-3.04-22.99-2.47-15.47,16.02-29.7,12.16-3.47,2.44-20.54,20.93-23.38,12.16,0,4.51-.63,12.75-15.04,27.27-9.16-1.42-17.07,19.91,1.42,4.27,2.84,2.98,5.69,14.22,24.18-10.26,28.16-2.54,5.98-19.61,28.74-28.14,11.67-4.27,4.27-21.34,15.65-14.41-7.05Z"/>
    <circle class="st2" cx="199.49" cy="178.45" r="1.13"/>
    <circle class="st2" cx="207.4" cy="178.45" r="1.13"/>
    <path class="st1" d="M208.53,182.97c7.9,6.78,12.42-5.65,8.44-5.65-1.67-1.13-9.57-2.26-8.44,5.65Z"/>
    <path class="st1" d="M191.24,179.58c7.12-2.26,11.64,3.39,9.38,6.33,0,2.7-11.29,2.7-9.38-6.33Z"/>
  </g>
  <g>
    <path class="st2" d="M172,238s-3.05,11.68-13,6c-44.25-18.31-41.53-66.9-40-73,6.1-13.73,15.54-2.53,17-1,10.61-12.21,14.75.87,14.75.87l12.01,19.83,14.05,34.93s10.71,2.75,9.19,10.37c-1.53,4.58-14,2-14,2Z"/>
    <path class="st3" d="M169.71,234.15s0,14.21-9.95,7.11c-41.21-17.05-39.79-62.53-38.37-68.21,5.68-12.79,12.91-1.42,14.27,0,9.89-11.37,14.33,0,14.33,0l11.18,18.47,12.79,35.53s11.37,1.42,9.95,8.53c-1.42,4.26-14.21-1.42-14.21-1.42Z"/>
    <path class="st2" d="M148,210c-15.33-22.99,6-18,9-6,2.84,0,2-1,2-1-4.53-7.66,3.27-23.99,12-1,40,23-30.11,52.05-23,8Z"/>
    <path class="st3" d="M151.23,209.99c-14.21-21.32,1.42-14.21,5.68-4.26q2.84,0,4.2-1.42c-4.2-7.11.06-21.32,8.16,0,37.38,17.05-26.57,46.89-18.04,5.68Z"/>
    <circle class="st2" cx="161.18" cy="218.52" r="1.42"/>
    <circle class="st2" cx="169.71" cy="217.1" r="1.42"/>
    <path class="st1" d="M158.34,224.21c-2.84,1.42-9.95,0-7.11-7.11,8.53-2.84,8.53,5.68,7.11,7.11Z"/>
    <path class="st1" d="M172.66,222.54c2.84,1.42,9.95,0,7.11-7.11-8.53-2.84-8.53,5.68-7.11,7.11"/>
    <path class="st2" d="M129.92,180.15c4.26-7.11,7.11-2.84,8.53,0,2.84-2.84-7.11-9.95-8.53,0Z"/>
  </g>
  <g>
    <g>
      <path class="st2" d="M190,276c-4.68-7.79,10.39-13.96,10.39-13.96,0,0,30.37-6.05,31.18-10.91,1.56-9.35,12.43-17.13,18.43-18.13,11-2,24.44,2.88,26,6,11.84,28.75-44.09,41.32-55,46-9.35,6.24-20-3-20-3,0,0-11,.76-11-6Z"/>
      <path class="st3" d="M192.6,276.07c-4.68-7.79,9.35-12.47,9.35-12.47,0,0,29.62-6.24,31.18-12.47,1.56-6.24,9.35-14.03,14.03-14.03,9.35-3.12,26.5,0,26.5,3.12,10.91,26.5-42.09,35.86-53,42.09-10.91,6.24-17.15-3.12-17.15-3.12,0,0-10.91,3.12-10.91-3.12Z"/>
      <path class="st2" d="M206,235c9.66-22.54,22.56-6.34,19-1,1.78-1.78,23.47-13.74,11,19,1.78,35.58-71.79,15.59-30-18Z"/>
      <path class="st3" d="M208.19,237.1c10.91-23.38,17.15-3.12,14.03,1.56,1.56-1.56,23.38-17.15,10.91,14.03,1.56,31.18-62.36,14.03-24.94-15.59Z"/>
      <path class="st1" d="M195.72,252.69c9.35-1.56,9.35,7.79,4.68,9.35s-7.79-6.24-4.68-9.35Z"/>
      <circle class="st2" cx="215.98" cy="262.04" r="1.56"/>
      <circle class="st2" cx="205.07" cy="257.36" r="1.56"/>
      <path class="st1" d="M219.1,268.28c6.24,7.79,15.59-3.12,10.57-6.24-1.22-3.12-13.69-4.68-10.57,6.24Z"/>
    </g>
    <path class="st2" d="M252.54,247.64c8.57-3.03,8,2.56,7.21,5.96,4.39-.42.94-13.38-7.21-5.96Z"/>
  </g>
</svg>