<?xml version="1.0" encoding="utf-8"?>
<!-- Generator: Adobe Illustrator 27.0.1, SVG Export Plug-In . SVG Version: 6.00 Build 0)  -->
<svg version="1.1" id="Layer_1" xmlns="http://www.w3.org/2000/svg" xmlns:xlink="http://www.w3.org/1999/xlink" x="0px" y="0px"
	 viewBox="0 0 768 768" style="enable-background:new 0 0 768 768;" xml:space="preserve">
<style type="text/css">
	.st0{fill:#1B1B1B;}
	.st1{fill:#F7E1B0;}
	.st2{fill:#7B3026;}
</style>
<polygon class="st0" points="149.35,173.5 167.12,164.62 289.3,346.79 361.51,311.24 420.38,383.44 495.91,173.5 554.78,161.29 
	652.82,250.8 641.09,261.27 555.53,231.72 541.45,352.34 739.18,320.13 745.84,339.01 522,468 506,567 458.15,585.61 454.81,606.71 
	270.42,587.83 253.76,518.96 28.02,539.48 22.16,522.72 230.43,425.65 "/>
<polygon class="st1" points="34.93,526.74 233.02,441.19 301.44,457.94 "/>
<polygon class="st2" points="60.48,526.74 334.66,468.42 393.3,483.08 "/>
<polygon class="st1" points="248.66,428.62 348.35,332.27 326.84,449.57 "/>
<polygon class="st1" points="360.07,332.27 424.58,472.61 346.39,451.66 "/>
<polygon class="st1" points="375.71,342.74 410.89,399.29 398.68,399.29 "/>
<polygon class="st1" points="295.57,357.4 305.34,361.59 336.38,332.27 "/>
<polygon class="st2" points="285.8,365.78 295.57,371.02 250.62,411.86 "/>
<polygon class="st2" points="405.03,407.67 416.61,407.67 426.53,462.13 "/>
<polygon class="st1" points="264.3,510.31 339.07,501.93 279.93,568.96 "/>
<polygon class="st1" points="361.05,498.44 432.29,489.36 448.03,589.91 "/>
<polygon class="st2" points="285.8,577.34 352.52,501.93 438.26,596.19 "/>
<polygon class="st1" points="160.45,176.84 277.98,357.4 240.47,411.86 "/>
<polygon class="st1" points="453.89,579.43 422.43,407.67 502.76,187.74 518.4,196.11 "/>
<polygon class="st2" points="528.17,202.4 543.89,222.3 498.85,558.49 463.67,573.15 "/>
<polygon class="st1" points="514.49,181.45 547.72,173.07 633.72,244.29 "/>
<polygon class="st2" points="542.55,208.68 621.99,246.39 554.65,222.3 "/>
<polygon class="st1" points="528.21,407.67 534.03,367.88 727.54,328.08 "/>
<polygon class="st2" points="522.31,455.85 526.22,422.34 733.4,336.46 "/>
</svg>
