<?xml version="1.0" encoding="UTF-8"?>
<svg id="Camada_1" xmlns="http://www.w3.org/2000/svg" version="1.1" viewBox="0 0 2600 2604">
  <!-- Generator: Adobe Illustrator 29.0.1, SVG Export Plug-In . SVG Version: 2.1.0 Build 192)  -->
  <defs>
    <style>
      .st0 {
        fill: #7b3026;
      }

      .st1 {
        fill: #1b1b1b;
      }

      .st2 {
        fill: #f7e1b0;
      }
    </style>
  </defs>
  <path class="st1" d="M630.9,839.6C412.7,196.3,793.5,200,925.4,269.9c329-325.3,496.6,89.2,522.5,177.9,506.5-336.4,575.6-12.1,602.6,51.8,414.1,7.4,129.4,713.5,18.5,672.9,495.4,184.9,432.6,610,199.6,602.6,33.3,675.1-602.6,340.1-684,255.1-192.3,555.4-689.1,462.1-672.9,273.6-473.2,67.2-299.5-499.2-281-539.8-728.3-51.8-414.9-436.3-414.9-436.3,0,0-346.7-255.1,414.9-488Z"/>
  <rect class="st2" x="925.7" y="879.3" width="872.5" height="828.2"/>
  <path class="st0" d="M1100.1,229.9c-30.7,2.9-60,19-103.1,56.9-27,23.6-46.3,38.2-60.4,45.2l-11.5,5.7-19.3.4c-31.5.8-67.5-6.2-110.4-21.5-39.6-14.1-38.8-13.8-52.4-13.3-14.4.5-23.4,4.2-34.4,14.1-33.9,30.6-52.3,106.7-50,208.3,2,87.2,16.7,172.2,44.4,255.3,16.3,49.2,30,79.3,49.8,109.8,4.1,6.2,7.2,11.5,6.9,11.7-.3.3-6.2-.4-13.3-1.6-20.8-3.4-69-3-93.7.8-71.3,10.9-126.5,32-228.8,87.6-40.6,22.1-45.1,24-80.5,34.8-48.7,14.8-66.8,23.5-86.4,42-19.4,18.5-31.5,43-38.2,77.5-3.4,17.4-4.2,62.2-1.5,79,3.7,22.3,11.7,40.6,24,54.7,2.6,2.9,11.8,10.9,20.5,17.8,30,23.9,30.3,30,4.1,76.3-29.5,51.7-37.3,74.4-37.3,106.2.1,20.6,3,33,11.9,51.1,31.9,65,140.8,133.1,265.4,166.1,58.4,15.5,133.2,23.8,186.7,20.9,12.8-.8,23.2-1.2,23.5-1.1.1.1-2.2,7.6-5.2,16.7-23.5,71.7-33.8,159.1-34.4,290.7-.3,54.3.4,64,6,91.4,11.9,59.2,44.8,105.5,89.8,126.7,17.8,8.4,32.2,11.8,52.8,12.5,22.4,1,33.8-1.1,57.4-9.9,19.7-7.3,25.8-8.8,37.7-8.8,14.1-.1,22,3.1,31.8,12.9,10.3,10.3,18.1,25.8,31.1,61.9,11.8,32.6,16,41.7,22.1,47.9,33.9,35.3,150.2,17.8,268.4-40.5,56.9-28.1,104.6-60.7,143.5-98.3,54.4-52.4,87-113.4,101-188.7,6.1-33.4,7.6-50.4,8.6-98.6l.8-46,5.3,7.3c8.4,11.9,27,34.1,42.8,51.3,41.5,45.2,94.6,83.2,148.8,106.9,81.2,35.4,175,47,283.8,35.2,100.5-10.9,161.4-54.6,189.4-135.8,11.7-33.8,15.6-64.5,14.5-111.7-.7-32.7-3.3-54.6-9.2-82.7-1.5-7.1-2.6-12.9-2.3-13s10.2-2.6,22.1-5.4c45.9-10.9,94.1-29.5,117.6-45.2,21.3-14.4,30.8-27.7,38.7-54,5.3-17.8,6.1-48.6,2-72.5-6.9-40.3-28.5-89.6-60.3-137.3-22.1-33.1-55.8-75-78.9-98-45.2-45.2-113.4-78.9-205.2-101.6-25.9-6.5-70.6-15.1-88.5-17.1-4.8-.4-8.6-1.2-8.6-1.8s3.3-2.6,7.2-4.8c11.7-6.5,36.4-23.1,53.6-36,57.6-42.9,103.5-93.7,127.6-141.1,12.2-24,34.4-85.1,47.7-132.2,20.1-70.9,28.1-123.6,26.9-176.9-1-42.2-5.7-65.7-18.9-93-6-12.4-8.3-15.6-18.6-25.8-17.7-17.2-38.4-28.5-68.3-37.2-29.5-8.6-53.1-11.7-95-12.6-18.6-.4-33.7-.8-33.7-1,0,0,1.4-3.5,3-7.6,4.2-10.6,4.2-28.2-.1-42.1-6.2-20.2-19.8-42.4-39.1-64.1-21.7-24.3-39.9-34.8-73.7-42-16.7-3.5-56.6-4.9-79.2-2.7-110.4,10.9-244.4,66.1-343.1,141.8-13.8,10.6-17.1,12.5-17.8,10.7-.5-1.2-4.3-12.8-8.4-25.4-22.8-69.9-57.4-126.4-108.9-178-41.5-41.7-86.6-72.8-139.4-96.1-27-11.8-41-14.8-61.6-12.9ZM1368,924.4c7.5,3.5,14,10.6,17.4,18.7,2.9,6.8,2.6,21.9-.5,28.8-5,10.9-18.3,20.8-28.1,20.9-2.3,0-4.9.8-5.7,1.6-2.2,2.7-16.3,40.5-24.8,66.3-23.2,70.1-39.1,152.8-39.2,202.9v10.9l6.7-9.9c39.2-58.9,120.4-128.4,219.4-187.9l19-11.4v-9.4c.3-10.9,2.6-17.2,9.2-24.6,14.7-16.2,40.1-15.6,54.4,1.2,5.3,6.1,9,16,9,24.2,0,12.5-8.7,25.9-20.5,31.9-11.9,6.1-30.8,3.8-40.1-4.9-2.7-2.6-2.9-2.6-24.7,10.9-97.1,59.9-170.4,122.2-208.2,176.9-4.5,6.7-7.6,11.9-7.1,11.9,2.2,0,27.2-6.9,39.8-11,37.2-12.1,89.2-36,124.9-57.3l17-10.2v-12.6c0-10.5.5-13.7,3-18.2,6.8-12.5,18.6-19.6,33.1-19.7,24.6,0,41.5,22.9,34.6,46.8-3.3,11-13.6,21.3-24.4,24.4-9.2,2.7-16.2,1.9-26.6-2.9l-7.5-3.4-18.3,11c-49.6,29.9-114.6,57.3-164.2,69.2l-12.8,3.1,6,3c10.5,5.4,43.4,17.9,60.3,23.1,32,9.8,69,17.1,106.6,21.3,20.1,2.2,91.9,2.2,112.7,0,24.7-2.7,23.5-2.3,26.2-9.6,5.7-16,17.4-24.6,33.4-24.6,21,.1,36.8,15.6,36.7,36,0,14.7-5.8,25-17.9,31.9-14.7,8.3-31.2,6.4-42.8-5.2-3.7-3.5-7.5-7.7-8.6-9.5l-1.9-3-19,2c-41.7,4.6-97.8,4.1-140.4-1.4-44-5.7-92.2-18.1-126.3-32.5-6.4-2.7-11.7-4.6-11.9-4.3-.8.7,24.8,24.6,39.8,37.1,44.4,36.9,94.8,71.8,146.9,101.6l20.8,11.8,5-3.4c9.1-6.4,15.1-8.1,24.7-7.5,20.1,1.5,33.9,16.3,33.9,36.5,0,33.4-40.6,49-63,24.3-6.9-7.7-9-13.2-9-24.2v-9.2l-17.9-9.9c-70.9-39.4-156.6-103.1-201.6-149.9l-9.9-10.2v23.4c0,34.4,3.8,98,7.6,127.2.8,6,1.1,6.2,6.8,7.7,16.4,4.5,26.3,17.7,26.3,35.4s-16.4,35.3-35.3,35.4c-15.1,0-25.8-6.1-32.9-18.6-9.5-16.8-4.5-38.3,11.4-48.3l6-3.7-1.6-14.7c-3.9-35.2-7.2-99.9-7.3-142.6v-20.6h-13.4c-49.6,0-124.1-8.6-166.2-19l-15.9-4.1-5.2,5.7c-6.9,7.7-13.7,10.6-25.5,10.6s-25.9-6.5-33.4-20.9c-4.5-8.4-4.1-22.3.7-31.5,11-21.5,38.8-26.7,57.6-10.9,5.8,4.9,11.3,16.2,11.3,23.5s-1.5,5.7,21.7,11.1c37.7,9,115.8,17.5,146.8,16.2l10.3-.4-8.7-14.9c-35-59.9-65.4-142.4-77.3-210.1l-2.3-13.3-4.9-.7c-18.3-3-32.7-19.1-32.7-36.7s16.6-36,35.8-36,17.8,2.3,25.3,9.1c16.6,14.9,16.2,40.5-1,54.6l-5,4.1,3.7,18.7c12.1,60.8,33.4,122.6,60.6,174.9,5.8,11.1,12.4,23.4,14.7,27l4.1,6.5,1-16c3-50.9,11.8-102.9,26.7-157.5,6.8-25.4,22-70.6,31-92.9,6.4-15.8,6.7-17.1,4.5-18.7-11.1-8.1-15.9-17.2-15.8-30.1.1-27.4,27.7-44,53.1-31.8Z"/>
</svg>